<svg viewBox="0 0 1200 630" xmlns="http://www.w3.org/2000/svg" width="1200" height="630">
<rect width="1200" height="630" fill="#18181B"/>
<line x1="0" y1="0" x2="0" y2="630" stroke="#1A1D21" stroke-width="1" opacity="0.5"/><line x1="60" y1="0" x2="60" y2="630" stroke="#1A1D21" stroke-width="1" opacity="0.5"/><line x1="120" y1="0" x2="120" y2="630" stroke="#1A1D21" stroke-width="1" opacity="0.5"/><line x1="180" y1="0" x2="180" y2="630" stroke="#1A1D21" stroke-width="1" opacity="0.5"/><line x1="240" y1="0" x2="240" y2="630" stroke="#1A1D21" stroke-width="1" opacity="0.5"/><line x1="300" y1="0" x2="300" y2="630" stroke="#1A1D21" stroke-width="1" opacity="0.5"/><line x1="360" y1="0" x2="360" y2="630" stroke="#1A1D21" stroke-width="1" opacity="0.5"/><line x1="420" y1="0" x2="420" y2="630" stroke="#1A1D21" stroke-width="1" opacity="0.5"/><line x1="480" y1="0" x2="480" y2="630" stroke="#1A1D21" stroke-width="1" opacity="0.5"/><line x1="540" y1="0" x2="540" y2="630" stroke="#1A1D21" stroke-width="1" opacity="0.5"/><line x1="600" y1="0" x2="600" y2="630" stroke="#1A1D21" stroke-width="1" opacity="0.5"/><line x1="660" y1="0" x2="660" y2="630" stroke="#1A1D21" stroke-width="1" opacity="0.5"/><line x1="720" y1="0" x2="720" y2="630" stroke="#1A1D21" stroke-width="1" opacity="0.5"/><line x1="780" y1="0" x2="780" y2="630" stroke="#1A1D21" stroke-width="1" opacity="0.5"/><line x1="840" y1="0" x2="840" y2="630" stroke="#1A1D21" stroke-width="1" opacity="0.5"/><line x1="900" y1="0" x2="900" y2="630" stroke="#1A1D21" stroke-width="1" opacity="0.5"/><line x1="960" y1="0" x2="960" y2="630" stroke="#1A1D21" stroke-width="1" opacity="0.5"/><line x1="1020" y1="0" x2="1020" y2="630" stroke="#1A1D21" stroke-width="1" opacity="0.5"/><line x1="1080" y1="0" x2="1080" y2="630" stroke="#1A1D21" stroke-width="1" opacity="0.5"/><line x1="1140" y1="0" x2="1140" y2="630" stroke="#1A1D21" stroke-width="1" opacity="0.5"/><line x1="0" y1="0" x2="1200" y2="0" stroke="#1A1D21" stroke-width="1" opacity="0.5"/><line x1="0" y1="60" x2="1200" y2="60" stroke="#1A1D21" stroke-width="1" opacity="0.5"/><line x1="0" y1="120" x2="1200" y2="120" stroke="#1A1D21" stroke-width="1" opacity="0.5"/><line x1="0" y1="180" x2="1200" y2="180" stroke="#1A1D21" stroke-width="1" opacity="0.5"/><line x1="0" y1="240" x2="1200" y2="240" stroke="#1A1D21" stroke-width="1" opacity="0.5"/><line x1="0" y1="300" x2="1200" y2="300" stroke="#1A1D21" stroke-width="1" opacity="0.5"/><line x1="0" y1="360" x2="1200" y2="360" stroke="#1A1D21" stroke-width="1" opacity="0.5"/><line x1="0" y1="420" x2="1200" y2="420" stroke="#1A1D21" stroke-width="1" opacity="0.5"/><line x1="0" y1="480" x2="1200" y2="480" stroke="#1A1D21" stroke-width="1" opacity="0.5"/><line x1="0" y1="540" x2="1200" y2="540" stroke="#1A1D21" stroke-width="1" opacity="0.5"/><line x1="0" y1="600" x2="1200" y2="600" stroke="#1A1D21" stroke-width="1" opacity="0.5"/><ellipse cx="136.38888888888889" cy="315.0" rx="120" ry="120" fill="#7C3AED" opacity="0.08"/><path d="M 80.00,245.00 L 181.11,245.00 L 192.78,260.56 L 181.11,276.11 L 107.22,276.11 L 107.22,299.44 L 157.78,299.44 L 169.44,315.00 L 157.78,330.56 L 107.22,330.56 L 107.22,385.00 L 80.00,385.00 Z" fill="#7C3AED"/><text x="252.77777777777777" y="305.0" font-family="Arial,Helvetica,sans-serif" font-size="80" font-weight="700" letter-spacing="-2" fill="#FFFFFF">TenderFlow</text><text x="252.77777777777777" y="353.0" font-family="Arial,Helvetica,sans-serif" font-size="20" font-weight="400" letter-spacing="5" fill="#9CA3AF">BID MANAGEMENT</text><text x="252.77777777777777" y="395.0" font-family="Arial,Helvetica,sans-serif" font-size="18" font-weight="400" fill="#9CA3AF" opacity="0.7">Streamline your tender workflow.</text><rect x="0" y="626" width="1200" height="4" fill="#7C3AED"/>
</svg>